<svg width="20" height="21" viewBox="0 0 20 21" fill="none" xmlns="http://www.w3.org/2000/svg">
<g clip-path="url(#clip0_24_4702)">
<path d="M13.3333 14.3217H18.3333M15.8333 11.8217V16.8217M17.5 9.3217V7.65503C17.4997 7.36276 17.4225 7.0757 17.2763 6.82266C17.13 6.56963 16.9198 6.3595 16.6667 6.21336L10.8333 2.88003C10.58 2.73375 10.2926 2.65674 10 2.65674C9.70744 2.65674 9.42003 2.73375 9.16667 2.88003L3.33333 6.21336C3.08022 6.3595 2.86998 6.56963 2.72372 6.82266C2.57745 7.0757 2.5003 7.36276 2.5 7.65503V14.3217C2.5003 14.614 2.57745 14.901 2.72372 15.1541C2.86998 15.4071 3.08022 15.6172 3.33333 15.7634L9.16667 19.0967C9.42003 19.243 9.70744 19.32 10 19.32C10.2926 19.32 10.58 19.243 10.8333 19.0967L12.5 18.1467M6.25 4.5467L13.75 8.83836M2.74167 6.8217L10 10.9884M10 10.9884L17.2583 6.8217M10 10.9884V19.3217" stroke="white" stroke-width="1.5" stroke-linecap="round" stroke-linejoin="round"/>
</g>
<defs>
<clipPath id="clip0_24_4702">
<rect width="20" height="20" fill="white" transform="translate(0 0.988281)"/>
</clipPath>
</defs>
</svg>
