<svg width="28" height="28" viewBox="0 0 28 28" fill="none" xmlns="http://www.w3.org/2000/svg">
<g clip-path="url(#clip0_24_5469)">
<circle cx="14" cy="14" r="14" fill="#E1E3F9"/>
<g clip-path="url(#clip1_24_5469)">
<path d="M7.33301 14.0002H9.33301M9.33301 14.0002C9.33301 16.5775 11.4223 18.6668 13.9997 18.6668M9.33301 14.0002C9.33301 11.4228 11.4223 9.3335 13.9997 9.3335M18.6663 14.0002H20.6663M18.6663 14.0002C18.6663 16.5775 16.577 18.6668 13.9997 18.6668M18.6663 14.0002C18.6663 11.4228 16.577 9.3335 13.9997 9.3335M13.9997 7.3335V9.3335M13.9997 18.6668V20.6668M15.9997 14.0002C15.9997 15.1047 15.1042 16.0002 13.9997 16.0002C12.8951 16.0002 11.9997 15.1047 11.9997 14.0002C11.9997 12.8956 12.8951 12.0002 13.9997 12.0002C15.1042 12.0002 15.9997 12.8956 15.9997 14.0002Z" stroke="#161D6F" stroke-width="1.5" stroke-linecap="round" stroke-linejoin="round"/>
</g>
</g>
<defs>
<clipPath id="clip0_24_5469">
<rect width="28" height="28" fill="white"/>
</clipPath>
<clipPath id="clip1_24_5469">
<rect width="16" height="16" fill="white" transform="translate(6 6)"/>
</clipPath>
</defs>
</svg>
