<svg width="360" height="81" viewBox="0 0 360 81" fill="none" xmlns="http://www.w3.org/2000/svg">
<g clip-path="url(#clip0_115_1180)">
<path d="M96.144 54.0949V27.1883L130.476 7.34668L142.728 14.4182L131.695 20.8082L142.745 27.1883V54.0949L130.496 61.1697V34.2631L119.446 27.883L108.393 34.2631V47.0201L119.846 53.6722V67.776L96.144 54.0949Z" fill="white"/>
<path d="M7.05516 45.2473C7.10844 45.9466 7.33356 46.622 7.71054 47.2134C7.87581 47.4371 8.09411 47.6163 8.34579 47.7347C8.59748 47.8531 8.87465 47.9071 9.15238 47.8917C9.88343 47.8769 10.6042 47.7165 11.2725 47.4199C11.8659 47.1947 12.425 46.8881 12.9339 46.5089L14.3987 49.9005C13.4773 50.9773 12.3469 51.8558 11.0759 52.4827C9.85076 53.1338 8.48832 53.4843 7.10104 53.5051C5.16548 53.5051 3.67559 53.0365 2.63135 52.0993C1.58477 51.1597 0.855452 49.9186 0.543965 48.5471C0.176036 46.9296 0.00114013 45.2741 0.0229383 43.6154L0 18.842H6.88148V41.7803C6.86638 42.9385 6.92438 44.0964 7.05516 45.2473ZM22.4959 46.9316C23.4309 47.6591 24.7635 48.0228 26.4937 48.0228C27.2037 48.0228 27.8744 47.9911 28.5057 47.9278C29.9373 47.7405 31.3489 47.4235 32.7231 46.9808C34.2108 46.5111 35.4233 46.0905 36.3605 45.7192L37.3992 49.9005C36.6188 50.5259 35.758 51.0438 34.84 51.4406C33.4992 52.0644 32.104 52.5635 30.6718 52.9316C29.126 53.3517 27.5319 53.5677 25.9301 53.5739C23.0202 53.5739 20.6969 53.0889 18.9601 52.1189C17.2228 51.1492 15.8905 49.5891 15.2048 47.7213C14.4336 45.7552 14.0492 43.2134 14.0513 40.096C14.0513 37.2189 14.4391 34.8639 15.2146 33.031C15.9449 31.2467 17.2915 29.7839 19.0093 28.9087C20.757 27.9977 23.0967 27.5411 26.0284 27.5389C29.3381 27.5389 31.9792 28.2708 33.9519 29.7345C35.9246 31.1981 36.9918 33.492 37.1535 36.6159C37.1862 36.9895 37.2026 37.5302 37.2026 38.2544C37.2026 39.126 37.1699 39.9354 37.1043 40.676C37.0388 41.4166 36.9929 41.8885 36.9601 42.0818L21.1065 43.0059C21.0956 44.8956 21.5587 46.2041 22.4959 46.9316ZM30.4948 36.7732C30.4948 34.1888 28.9754 32.8956 25.9366 32.8934C24.4315 32.8934 23.2758 33.2975 22.4697 34.1058C21.6636 34.9141 21.2026 36.1419 21.0868 37.7891L30.4686 37.4286C30.4879 37.2173 30.4967 37.0051 30.4948 36.7929V36.7732ZM47.3053 41.8164C47.2895 42.9701 47.3464 44.1237 47.4757 45.2702C47.5328 45.9688 47.7576 46.6433 48.1311 47.2364C48.2923 47.4614 48.5078 47.642 48.7577 47.7612C49.0075 47.8803 49.2835 47.9343 49.5598 47.918C50.3048 47.9024 51.0391 47.7374 51.7193 47.433C52.3063 47.2037 52.8579 46.8926 53.3577 46.5089L54.8094 49.93C53.896 51.0185 52.7711 51.9103 51.503 52.5515C50.2834 53.2073 48.9227 53.557 47.538 53.5706C44.9033 53.5706 43.0617 52.7219 42.0131 51.0245C40.9645 49.327 40.4391 47.1697 40.4369 44.5526V43.8972L40.4107 33.2538H37.7466V28.1222H40.4107V22.2566L47.2922 20.664V28.1222H52.4795L51.8241 33.2604H47.2824L47.3053 41.623V41.8164ZM60.4457 47.2003C61.9998 47.6707 63.61 47.9308 65.2332 47.9737C66.6073 47.9737 67.6657 47.8 68.4085 47.4526C68.7532 47.3113 69.0456 47.0664 69.2452 46.7518C69.4447 46.4371 69.5417 46.0683 69.5227 45.6962C69.5195 45.4228 69.448 45.1546 69.3146 44.9159C69.1813 44.6772 68.9903 44.4757 68.7591 44.3298C68.1834 43.9239 67.5446 43.6161 66.8684 43.4188C66.118 43.1861 65.089 42.9141 63.7783 42.6094L62.7591 42.3669C60.7078 41.8338 59.1163 40.9207 57.9847 39.6274C56.8548 38.3341 56.2493 36.665 56.2873 34.948C56.2825 34.4364 56.3231 33.9254 56.4085 33.421C56.5642 32.456 56.9538 31.5438 57.5433 30.7641C58.1328 29.9844 58.9043 29.3608 59.7903 28.948C61.6756 28.0042 64.0229 27.5313 66.8323 27.5291C69.8019 27.5037 72.7307 28.2212 75.3523 29.6165L74.6707 34.8988C73.8636 34.5287 73.0245 34.2325 72.1638 34.0141C71.1218 33.7323 70.0568 33.4931 68.9754 33.2997C68.1228 33.1958 67.2652 33.1389 66.4063 33.1293C64.1737 33.1293 63.0584 33.7028 63.0606 34.8497C63.0561 35.224 63.1585 35.5919 63.3559 35.91C63.5533 36.2281 63.8374 36.4832 64.1748 36.6454C64.9175 37.0649 66.0732 37.4199 67.6417 37.7104C70.4074 38.2762 72.5975 39.2298 74.2119 40.5711C74.9794 41.1714 75.5976 41.9411 76.0183 42.8199C76.4389 43.6988 76.6506 44.663 76.6368 45.6372C76.6368 47.5597 76.1398 49.1107 75.1458 50.2904C74.133 51.4827 72.7987 52.3586 71.302 52.8136C69.6386 53.3288 67.9051 53.582 66.1638 53.564C65.3294 53.5647 64.4957 53.5166 63.6668 53.4199C60.4861 53.0616 57.7957 52.2129 55.5958 50.8737L56.2021 45.3947C57.1786 46.0807 58.5931 46.6826 60.4457 47.2003ZM223.629 47.9343C223.351 47.949 223.073 47.8944 222.822 47.7754C222.57 47.6564 222.352 47.4768 222.187 47.2527C221.812 46.6604 221.587 45.9855 221.531 45.2866C221.405 44.1398 221.349 42.9864 221.364 41.8328V28.486L214.502 27.8306V29.9409C213.688 29.2334 212.762 28.6644 211.763 28.2566C210.72 27.7817 209.589 27.5295 208.443 27.516C204.97 27.516 202.485 28.6716 200.989 30.9829C199.492 33.2943 198.741 36.4324 198.734 40.3975C198.734 43.8382 199.345 46.8967 200.566 49.5728C201.787 52.2489 204.102 53.5892 207.51 53.5935C207.896 53.5935 208.188 53.5935 208.381 53.5706C209.794 53.5344 211.168 53.1017 212.346 52.3221C213.505 51.5322 214.491 50.5142 215.243 49.3303C216.259 52.1572 218.367 53.5706 221.567 53.5706C222.955 53.5563 224.319 53.2066 225.542 52.5515C226.042 52.2941 226.522 51.9995 226.978 51.67L225.375 47.6067C224.816 47.8145 224.225 47.9253 223.629 47.9343ZM214.489 44.8803C213.979 45.7135 213.292 46.4248 212.477 46.9644C211.719 47.5023 210.815 47.7972 209.885 47.8098L209.558 47.7869C208.247 47.6427 207.264 46.9076 206.608 45.5815C205.915 44.0768 205.564 42.4374 205.579 40.7809C205.585 39.6552 205.719 38.5338 205.979 37.4384C206.218 36.3492 206.704 35.3292 207.398 34.4565C207.727 34.044 208.149 33.7148 208.629 33.4956C209.109 33.2764 209.633 33.1734 210.161 33.1949C211.792 33.1949 213.239 33.8655 214.499 35.2069L214.489 44.8803ZM172.506 41.8164C172.49 42.9701 172.547 44.1237 172.676 45.2702C172.735 45.9685 172.959 46.6426 173.332 47.2364C173.493 47.4619 173.709 47.6428 173.96 47.762C174.21 47.8812 174.487 47.9349 174.764 47.918C175.507 47.9019 176.241 47.737 176.92 47.433C177.507 47.2053 178.059 46.8941 178.558 46.5089L180.013 49.93C179.098 51.0186 177.973 51.9104 176.703 52.5515C175.483 53.2091 174.121 53.56 172.735 53.5739C170.1 53.5739 168.258 52.7252 167.207 51.0277C166.156 49.3303 165.631 47.173 165.631 44.5559V43.9005L165.608 33.2571H162.94V28.1222H165.608V22.2566L172.489 20.664V28.1222H177.677L177.021 33.2604H172.48L172.506 41.623V41.8164ZM196.44 32.9098C195.805 32.7607 195.153 32.6914 194.5 32.7033C193.486 32.7101 192.488 32.9596 191.59 33.4308C190.673 33.8856 189.873 34.5448 189.251 35.3576C188.675 36.0777 188.356 36.9689 188.343 37.8906V52.9644H181.507V28.463L188.343 27.8076V31.3958C189.153 30.1765 190.257 29.1815 191.554 28.5032C192.851 27.8249 194.299 27.4853 195.762 27.516C196.487 27.5097 197.208 27.6079 197.905 27.8076C198.348 27.9165 198.776 28.0794 199.18 28.2926L198.259 33.516C197.664 33.2808 197.057 33.0784 196.44 32.9098ZM274.683 28.486L281.528 27.8076V30.8945C281.875 30.3899 282.292 29.9375 282.767 29.5509C283.455 28.9682 284.229 28.4941 285.061 28.1452C286.015 27.7251 287.049 27.514 288.092 27.5258C291.775 27.5258 294.235 28.8366 295.471 31.4581C296.708 34.0796 297.326 37.1752 297.326 40.7448C297.326 44.6771 296.575 47.8033 295.072 50.1233C293.569 52.4434 291.088 53.599 287.63 53.5903C286.485 53.5912 285.347 53.4076 284.261 53.0463C283.28 52.7449 282.361 52.2723 281.544 51.6503V62.3166L274.709 61.8808L274.683 28.486ZM282.22 47.1151C282.759 47.3417 283.314 47.5279 283.881 47.6722C284.538 47.8439 285.214 47.9298 285.893 47.9278C286.418 47.9499 286.941 47.8495 287.42 47.6345C287.9 47.4195 288.323 47.0958 288.655 46.6891C289.35 45.831 289.832 44.8203 290.061 43.7399C290.318 42.6022 290.448 41.4394 290.448 40.273C290.474 38.9977 290.286 37.7272 289.891 36.5144C289.605 35.585 289.088 34.743 288.39 34.0665C287.828 33.5301 287.083 33.2268 286.306 33.2178C285.212 33.1686 284.135 33.5062 283.265 34.1714C282.586 34.6959 281.996 35.3267 281.518 36.0392V46.7874C281.741 46.9129 281.972 47.0224 282.21 47.1151H282.22ZM316.116 28.273C317.772 28.7798 319.206 29.919 320.418 31.6908C321.631 33.4625 322.236 36.084 322.234 39.5553V41.5673C322.234 44.7852 321.696 47.2746 320.621 49.0354C319.693 50.6799 318.225 51.9532 316.466 52.64C314.572 53.3022 312.575 53.6218 310.568 53.5837C308.694 53.606 306.828 53.3487 305.03 52.8202C303.372 52.3134 301.938 51.1741 300.727 49.4024C299.517 47.6307 298.911 45.0092 298.909 41.5378V39.5488C298.909 36.333 299.446 33.8404 300.521 32.0709C301.596 30.3014 302.982 29.0998 304.679 28.4663C306.573 27.8011 308.571 27.4804 310.578 27.5193C312.451 27.4941 314.317 27.7481 316.116 28.273ZM306.793 45.9092C307.505 47.2506 308.766 47.9212 310.575 47.9212C312.497 47.9212 313.786 47.2342 314.441 45.8601C315.097 44.486 315.424 42.7164 315.424 40.5515C315.424 38.3035 315.068 36.5133 314.356 35.1807C313.644 33.848 312.383 33.1817 310.575 33.1817C308.65 33.1817 307.361 33.8644 306.708 35.2298C306.055 36.5952 305.727 38.3603 305.725 40.5253C305.727 42.7776 306.083 44.5744 306.793 45.9158V45.9092ZM338.916 32.9098C338.281 32.7607 337.629 32.6914 336.976 32.7033C335.963 32.7105 334.967 32.9599 334.07 33.4308C333.153 33.8856 332.352 34.5448 331.73 35.3576C331.153 36.0768 330.833 36.9686 330.822 37.8906V52.9644H323.987V28.463L330.822 27.8076V31.3958C331.632 30.177 332.736 29.1823 334.032 28.504C335.329 27.8257 336.775 27.4859 338.238 27.516C338.964 27.5096 339.687 27.6078 340.384 27.8076C340.827 27.9156 341.254 28.0785 341.656 28.2926L340.735 33.5029C340.14 33.2716 339.533 33.0736 338.916 32.9098ZM352.486 41.8164C352.47 42.9701 352.527 44.1237 352.656 45.2702C352.714 45.9688 352.938 46.6433 353.312 47.2364C353.473 47.4614 353.689 47.642 353.938 47.7612C354.188 47.8803 354.464 47.9343 354.741 47.918C355.486 47.9024 356.22 47.7374 356.9 47.433C357.487 47.2037 358.039 46.8926 358.538 46.5089L359.99 49.93C359.077 51.0185 357.952 51.9103 356.684 52.5515C355.464 53.2073 354.103 53.557 352.719 53.5706C350.084 53.5706 348.242 52.7219 347.194 51.0245C346.145 49.327 345.62 47.1697 345.618 44.5526V43.8972L345.591 33.2538H342.927V28.1222H345.591V22.2566L352.473 20.664V28.1222H357.66L357.005 33.2604H352.447L352.47 41.623L352.486 41.8164ZM249.85 53.5739C247.216 53.5739 245.409 52.7372 244.43 51.0638C243.452 49.3904 242.963 47.2211 242.966 44.5559V39.5389C242.966 37.3543 242.666 35.7465 242.068 34.7153C241.469 33.6842 240.423 33.1675 238.928 33.1654C238.154 33.1571 237.388 33.3229 236.687 33.6503C236.072 33.9269 235.496 34.2851 234.977 34.7153C234.721 34.9007 234.492 35.1213 234.298 35.3707V52.9677H227.476V28.486L234.311 27.8306V30.8617C234.311 30.747 234.682 30.4062 235.425 29.8295C236.274 29.1959 237.193 28.6637 238.165 28.2435C239.239 27.76 240.405 27.512 241.583 27.516C244.525 27.516 246.635 28.3767 247.91 30.0982C249.186 31.8196 249.824 34.3527 249.824 37.6973V45.9125C249.821 47.0143 249.885 48.1152 250.017 49.2091C250.073 49.828 250.3 50.4192 250.673 50.9163L249.85 53.5739ZM256.535 47.2003C258.089 47.6707 259.7 47.9308 261.323 47.9737C262.695 47.9737 263.753 47.8 264.498 47.4526C264.843 47.3113 265.135 47.0664 265.335 46.7518C265.534 46.4371 265.631 46.0683 265.612 45.6962C265.609 45.4228 265.538 45.1546 265.404 44.9159C265.271 44.6772 265.08 44.4757 264.849 44.3298C264.273 43.9239 263.634 43.6161 262.958 43.4188C262.208 43.1861 261.179 42.9141 259.868 42.6094L258.849 42.3669C256.797 41.8338 255.206 40.9207 254.074 39.6274C252.942 38.3385 252.332 36.6732 252.364 34.9578C252.359 34.4462 252.4 33.9352 252.485 33.4308C252.641 32.4658 253.03 31.5536 253.62 30.7739C254.209 29.9942 254.981 29.3707 255.867 28.9578C257.752 28.0141 260.099 27.5411 262.909 27.5389C265.878 27.5135 268.807 28.2311 271.429 29.6263L270.747 34.9087C269.94 34.5385 269.101 34.2424 268.24 34.0239C267.198 33.7421 266.133 33.5029 265.052 33.3095C264.199 33.2056 263.342 33.1487 262.483 33.1391C260.252 33.1391 259.137 33.7126 259.137 34.8595C259.133 35.2339 259.235 35.6017 259.432 35.9198C259.63 36.2379 259.914 36.4931 260.251 36.6553C260.994 37.0747 262.15 37.4297 263.718 37.7202C266.484 38.2861 268.674 39.2396 270.288 40.581C271.056 41.1813 271.674 41.9509 272.095 42.8297C272.515 43.7086 272.727 44.6728 272.713 45.6471C272.713 47.5695 272.216 49.1206 271.222 50.3003C270.21 51.4926 268.875 52.3684 267.378 52.8235C265.715 53.3386 263.982 53.5918 262.24 53.5739C261.406 53.5745 260.572 53.5264 259.743 53.4297C256.571 53.0736 253.882 52.2249 251.676 50.8835L252.282 45.4046C253.265 46.084 254.683 46.6826 256.535 47.2003Z" fill="black"/>
<path d="M130.896 7.58582L119.446 0.976318L107.283 7.99871L98.0647 13.3204L85.0947 20.8081V24.1145L96.5442 30.724V27.4209L130.896 7.58582Z" fill="#FF671F"/>
<path d="M119.446 67.0845L96.5442 53.8622V27.4209L85.0947 20.8081V60.475L119.446 80.3067L121.708 78.9698V65.7508L119.446 67.0845Z" fill="#E04E39"/>
<path d="M119.446 27.4208L107.994 34.0303V36.7403L119.446 43.3498L130.896 36.7403V34.0303L119.446 27.4208ZM142.345 14.1985L130.896 20.808L142.345 27.4208V30.1275L153.795 23.518V20.808L142.345 14.1985Z" fill="#FF671F"/>
<path d="M119.446 40.6431L107.994 34.0303V47.2526L119.446 53.9014L121.799 52.5185V39.2799L119.446 40.6431Z" fill="#E04E39"/>
<path d="M119.446 40.6432V80.3067L153.795 60.475V20.8081L142.345 27.4209V53.8622L130.896 60.475V34.0304L119.446 40.6432Z" fill="#A72B2A"/>
</g>
<defs>
<clipPath id="clip0_115_1180">
<rect width="360" height="79.3304" fill="white" transform="translate(0 0.976318)"/>
</clipPath>
</defs>
</svg>
