<svg width="160" height="36" viewBox="0 0 160 36" fill="none" xmlns="http://www.w3.org/2000/svg">
<g clip-path="url(#clip0_24_3621)">
<path d="M42.7307 23.6082V11.6497L57.9894 2.83124L63.4349 5.97415L58.5312 8.81413L63.4422 11.6497V23.6082L57.9981 26.7526V14.7941L53.0872 11.9585L48.1747 14.7941V20.4639L53.2649 23.4204V29.6887L42.7307 23.6082Z" fill="white"/>
<path d="M3.13563 19.676C3.15931 19.9868 3.25936 20.2869 3.42691 20.5498C3.50036 20.6492 3.59738 20.7288 3.70924 20.7815C3.8211 20.8341 3.94429 20.8581 4.06772 20.8513C4.39263 20.8447 4.71297 20.7734 5.01001 20.6415C5.27372 20.5415 5.52223 20.4052 5.74841 20.2367L6.39942 21.744C5.98993 22.2226 5.48751 22.6131 4.92263 22.8917C4.37812 23.1811 3.77259 23.3368 3.15602 23.3461C2.29577 23.3461 1.63359 23.1378 1.16949 22.7213C0.704342 22.3037 0.380201 21.7521 0.241762 21.1425C0.0782381 20.4236 0.000506725 19.6879 0.0101948 18.9507L0 7.94029H3.05844V18.1351C3.05172 18.6498 3.0775 19.1645 3.13563 19.676ZM9.99818 20.4245C10.4137 20.7479 11.006 20.9095 11.775 20.9095C12.0905 20.9095 12.3886 20.8954 12.6692 20.8673C13.3055 20.784 13.9328 20.6432 14.5436 20.4464C15.2048 20.2376 15.7437 20.0507 16.1602 19.8857L16.6219 21.744C16.275 22.022 15.8925 22.2522 15.4844 22.4285C14.8886 22.7058 14.2684 22.9276 13.6319 23.0912C12.9449 23.2779 12.2364 23.3739 11.5245 23.3767C10.2312 23.3767 9.19862 23.1611 8.42672 22.73C7.65458 22.299 7.06245 21.6056 6.75769 20.7755C6.41495 19.9017 6.24407 18.772 6.24504 17.3865C6.24504 16.1078 6.41738 15.0611 6.76206 14.2465C7.08664 13.4535 7.6851 12.8033 8.44857 12.4143C9.22532 12.0095 10.2652 11.8065 11.5682 11.8056C13.0391 11.8056 14.213 12.1308 15.0897 12.7814C15.9665 13.4319 16.4408 14.4514 16.5127 15.8398C16.5272 16.0058 16.5345 16.2461 16.5345 16.568C16.5345 16.9554 16.5199 17.3151 16.4908 17.6443C16.4617 17.9734 16.4413 18.1831 16.4267 18.2691L9.38067 18.6798C9.37581 19.5196 9.58165 20.1012 9.99818 20.4245ZM13.5532 15.9097C13.5532 14.7611 12.878 14.1863 11.5274 14.1853C10.8584 14.1853 10.3448 14.365 9.98653 14.7242C9.62825 15.0834 9.42339 15.6291 9.37193 16.3612L13.5416 16.201C13.5502 16.1071 13.5541 16.0128 13.5532 15.9184V15.9097ZM21.0246 18.1511C21.0176 18.6639 21.0429 19.1766 21.1003 19.6861C21.1257 19.9966 21.2256 20.2964 21.3916 20.56C21.4632 20.66 21.559 20.7403 21.6701 20.7932C21.7811 20.8462 21.9038 20.8702 22.0266 20.8629C22.3577 20.856 22.6841 20.7827 22.9863 20.6474C23.2472 20.5455 23.4924 20.4072 23.7145 20.2367L24.3597 21.7571C23.9538 22.2409 23.4538 22.6373 22.8902 22.9223C22.3482 23.2137 21.7434 23.3692 21.128 23.3752C19.957 23.3752 19.1385 22.998 18.6725 22.2436C18.2064 21.4892 17.9729 20.5304 17.972 19.3672V19.0759L17.9603 14.3455H16.7763V12.0648H17.9603V9.45786L21.0188 8.75005V12.0648H23.3242L23.0329 14.3484H21.0144L21.0246 18.0652V18.1511ZM26.8647 20.544C27.5555 20.753 28.2711 20.8686 28.9925 20.8877C29.6033 20.8877 30.0737 20.8105 30.4038 20.6561C30.557 20.5933 30.6869 20.4844 30.7756 20.3446C30.8643 20.2048 30.9074 20.0409 30.899 19.8755C30.8976 19.754 30.8658 19.6348 30.8065 19.5287C30.7472 19.4226 30.6624 19.333 30.5596 19.2682C30.3037 19.0878 30.0198 18.951 29.7193 18.8633C29.3858 18.7599 28.9285 18.639 28.3459 18.5036L27.893 18.3958C26.9812 18.1589 26.2739 17.753 25.771 17.1782C25.2688 16.6034 24.9997 15.8616 25.0166 15.0985C25.0144 14.8711 25.0325 14.644 25.0705 14.4198C25.1397 13.9909 25.3128 13.5855 25.5748 13.239C25.8368 12.8924 26.1797 12.6153 26.5735 12.4318C27.4114 12.0124 28.4546 11.8022 29.7033 11.8012C31.0231 11.7899 32.3248 12.1088 33.4899 12.7289L33.187 15.0766C32.8282 14.9121 32.4553 14.7805 32.0728 14.6834C31.6097 14.5582 31.1364 14.4518 30.6557 14.3659C30.2768 14.3197 29.8956 14.2944 29.5139 14.2902C28.5216 14.2902 28.026 14.5451 28.0269 15.0548C28.0249 15.2212 28.0705 15.3847 28.1582 15.526C28.2459 15.6674 28.3722 15.7808 28.5221 15.8529C28.8522 16.0393 29.3659 16.1971 30.063 16.3262C31.2922 16.5777 32.2655 17.0015 32.9831 17.5977C33.3242 17.8645 33.5989 18.2065 33.7859 18.5971C33.9729 18.9877 34.0669 19.4163 34.0608 19.8493C34.0608 20.7037 33.8399 21.393 33.3981 21.9174C32.948 22.4473 32.355 22.8365 31.6898 23.0388C30.9505 23.2677 30.1801 23.3803 29.4062 23.3723C29.0353 23.3726 28.6647 23.3512 28.2964 23.3082C26.8827 23.149 25.687 22.7718 24.7093 22.1766L24.9787 19.7415C25.4127 20.0464 26.0414 20.3139 26.8647 20.544ZM99.3905 20.8702C99.2669 20.8767 99.1437 20.8524 99.0319 20.7996C98.92 20.7467 98.8231 20.6669 98.7497 20.5673C98.5829 20.304 98.4829 20.0041 98.4584 19.6934C98.4023 19.1837 98.3775 18.6711 98.3841 18.1584V12.2265L95.3344 11.9352V12.8731C94.9722 12.5587 94.5609 12.3058 94.1169 12.1245C93.6533 11.9135 93.1508 11.8014 92.6415 11.7954C91.0977 11.7954 89.9933 12.309 89.3282 13.3362C88.6631 14.3635 88.3291 15.7582 88.3262 17.5205C88.3262 19.0497 88.5976 20.409 89.1404 21.5984C89.6831 22.7878 90.7118 23.3835 92.2265 23.3854C92.3983 23.3854 92.5279 23.3854 92.6139 23.3752C93.2417 23.3591 93.8523 23.1668 94.3761 22.8203C94.8912 22.4693 95.3293 22.0168 95.6636 21.4906C96.115 22.747 97.052 23.3752 98.4744 23.3752C99.0912 23.3688 99.6973 23.2134 100.241 22.9223C100.463 22.8079 100.676 22.6769 100.879 22.5305L100.167 20.7246C99.9182 20.8169 99.6556 20.8662 99.3905 20.8702ZM95.3286 19.5128C95.1017 19.8832 94.7965 20.1993 94.4344 20.4391C94.0973 20.6782 93.6956 20.8092 93.2824 20.8149L93.1367 20.8047C92.5542 20.7406 92.1172 20.4139 91.826 19.8245C91.518 19.1557 91.3618 18.4271 91.3686 17.6909C91.3712 17.1906 91.4308 16.6922 91.5463 16.2054C91.6526 15.7212 91.8684 15.2679 92.1769 14.88C92.3232 14.6967 92.5105 14.5504 92.7238 14.453C92.9371 14.3556 93.1704 14.3098 93.4047 14.3193C94.13 14.3193 94.7727 14.6174 95.333 15.2135L95.3286 19.5128ZM76.6692 18.1511C76.6622 18.6639 76.6875 19.1766 76.7449 19.6861C76.771 19.9965 76.8708 20.2961 77.0362 20.56C77.108 20.6602 77.204 20.7406 77.3154 20.7936C77.4267 20.8466 77.5496 20.8704 77.6727 20.8629C78.0033 20.8558 78.3291 20.7825 78.631 20.6474C78.8922 20.5462 79.1375 20.4079 79.3592 20.2367L80.0058 21.7571C79.5993 22.241 79.0989 22.6373 78.5349 22.9223C77.9925 23.2145 77.3872 23.3705 76.7712 23.3767C75.6002 23.3767 74.7812 22.9995 74.3142 22.245C73.8472 21.4906 73.6137 20.5318 73.6137 19.3687V19.0774L73.6035 14.347H72.418V12.0648H73.6035V9.45786L76.6619 8.75005V12.0648H78.9674L78.6761 14.3484H76.6576L76.6692 18.0652V18.1511ZM87.3067 14.1926C87.0243 14.1264 86.7346 14.0955 86.4446 14.1009C85.9938 14.1039 85.5504 14.2147 85.1513 14.4242C84.7437 14.6263 84.388 14.9193 84.1114 15.2805C83.8556 15.6006 83.7136 15.9967 83.708 16.4063V23.1058H80.6699V12.2163L83.708 11.925V13.5198C84.0678 12.9778 84.5588 12.5356 85.1352 12.2341C85.7116 11.9327 86.3549 11.7818 87.0053 11.7954C87.3274 11.7926 87.6481 11.8362 87.9578 11.925C88.1547 11.9734 88.345 12.0458 88.5243 12.1405L88.1151 14.462C87.8508 14.3575 87.5809 14.2676 87.3067 14.1926ZM122.081 12.2265L125.124 11.925V13.2969C125.278 13.0727 125.463 12.8716 125.674 12.6998C125.98 12.4408 126.324 12.2301 126.694 12.075C127.118 11.8883 127.577 11.7945 128.041 11.7997C129.678 11.7997 130.771 12.3823 131.321 13.5474C131.87 14.7125 132.145 16.0884 132.145 17.6749C132.145 19.4225 131.811 20.8119 131.143 21.8431C130.475 22.8742 129.372 23.3878 127.835 23.3839C127.327 23.3844 126.821 23.3027 126.338 23.1422C125.902 23.0082 125.494 22.7982 125.131 22.5218V27.2623L122.093 27.0686L122.081 12.2265ZM125.431 20.5061C125.671 20.6068 125.917 20.6895 126.169 20.7537C126.461 20.83 126.762 20.8682 127.064 20.8673C127.297 20.8771 127.529 20.8325 127.742 20.7369C127.955 20.6414 128.143 20.4975 128.291 20.3168C128.6 19.9354 128.814 19.4862 128.916 19.006C129.03 18.5004 129.088 17.9835 129.088 17.4651C129.099 16.8984 129.016 16.3337 128.84 15.7946C128.713 15.3816 128.484 15.0074 128.173 14.7067C127.923 14.4683 127.592 14.3335 127.247 14.3295C126.761 14.3077 126.282 14.4577 125.895 14.7533C125.594 14.9865 125.332 15.2668 125.119 15.5835V20.3605C125.218 20.4162 125.321 20.4649 125.427 20.5061H125.431ZM140.496 12.1318C141.232 12.3571 141.869 12.8634 142.408 13.6508C142.947 14.4383 143.216 15.6034 143.215 17.1462V18.0404C143.215 19.4706 142.976 20.577 142.498 21.3595C142.086 22.0904 141.434 22.6564 140.652 22.9616C139.81 23.2559 138.922 23.398 138.03 23.381C137.197 23.391 136.368 23.2766 135.569 23.0417C134.832 22.8164 134.195 22.3101 133.657 21.5227C133.119 20.7352 132.849 19.5701 132.848 18.0273V17.1433C132.848 15.7141 133.087 14.6062 133.565 13.8198C134.043 13.0333 134.659 12.4993 135.413 12.2177C136.255 11.9221 137.143 11.7796 138.035 11.7968C138.867 11.7856 139.697 11.8985 140.496 12.1318ZM136.352 19.9701C136.669 20.5663 137.229 20.8644 138.033 20.8644C138.888 20.8644 139.46 20.559 139.752 19.9483C140.043 19.3376 140.189 18.5511 140.189 17.5889C140.189 16.5898 140.03 15.7942 139.714 15.2019C139.397 14.6096 138.837 14.3135 138.033 14.3135C137.178 14.3135 136.605 14.6169 136.315 15.2237C136.024 15.8306 135.879 16.6151 135.878 17.5773C135.879 18.5783 136.037 19.3769 136.352 19.9731V19.9701ZM150.63 14.1926C150.347 14.1264 150.057 14.0955 149.767 14.1009C149.317 14.1041 148.874 14.2149 148.475 14.4242C148.068 14.6263 147.712 14.9193 147.436 15.2805C147.179 15.6002 147.037 15.9965 147.032 16.4063V23.1058H143.994V12.2163L147.032 11.925V13.5198C147.392 12.978 147.883 12.5359 148.459 12.2345C149.035 11.933 149.678 11.782 150.328 11.7954C150.651 11.7925 150.972 11.8362 151.282 11.925C151.479 11.973 151.668 12.0454 151.847 12.1405L151.438 14.4562C151.173 14.3534 150.904 14.2654 150.63 14.1926ZM156.66 18.1511C156.653 18.6639 156.679 19.1766 156.736 19.6861C156.762 19.9966 156.861 20.2964 157.027 20.56C157.099 20.66 157.195 20.7403 157.306 20.7932C157.417 20.8462 157.54 20.8702 157.662 20.8629C157.994 20.856 158.32 20.7827 158.622 20.6474C158.883 20.5455 159.128 20.4072 159.35 20.2367L159.996 21.7571C159.59 22.2409 159.09 22.6373 158.526 22.9223C157.984 23.2137 157.379 23.3692 156.764 23.3752C155.593 23.3752 154.774 22.998 154.308 22.2436C153.842 21.4892 153.609 20.5304 153.608 19.3672V19.0759L153.596 14.3455H152.412V12.0648H153.596V9.45786L156.655 8.75005V12.0648H158.96L158.669 14.3484H156.643L156.653 18.0652L156.66 18.1511ZM111.045 23.3767C109.874 23.3767 109.071 23.0048 108.636 22.2611C108.201 21.5173 107.984 20.5532 107.985 19.3687V17.1389C107.985 16.168 107.852 15.4534 107.586 14.9951C107.32 14.5368 106.855 14.3072 106.19 14.3062C105.846 14.3025 105.506 14.3762 105.194 14.5218C104.921 14.6447 104.665 14.8039 104.434 14.9951C104.32 15.0775 104.219 15.1755 104.133 15.2864V23.1072H101.1V12.2265L104.138 11.9352V13.2824C104.138 13.2314 104.303 13.0799 104.634 12.8236C105.011 12.542 105.419 12.3055 105.851 12.1187C106.329 11.9038 106.846 11.7936 107.37 11.7954C108.678 11.7954 109.615 12.1779 110.182 12.943C110.749 13.7081 111.033 14.8339 111.033 16.3204V19.9716C111.031 20.4613 111.06 20.9506 111.119 21.4367C111.144 21.7118 111.244 21.9746 111.41 22.1955L111.045 23.3767ZM114.016 20.544C114.706 20.753 115.422 20.8686 116.143 20.8877C116.753 20.8877 117.224 20.8105 117.555 20.6561C117.708 20.5933 117.838 20.4844 117.927 20.3446C118.015 20.2048 118.058 20.0409 118.05 19.8755C118.048 19.754 118.017 19.6348 117.957 19.5287C117.898 19.4226 117.813 19.333 117.711 19.2682C117.455 19.0878 117.171 18.951 116.87 18.8633C116.537 18.7599 116.079 18.639 115.497 18.5036L115.044 18.3958C114.132 18.1589 113.425 17.753 112.922 17.1782C112.419 16.6054 112.147 15.8652 112.162 15.1029C112.16 14.8755 112.178 14.6484 112.216 14.4242C112.285 13.9953 112.458 13.5899 112.72 13.2433C112.982 12.8968 113.325 12.6197 113.719 12.4362C114.556 12.0167 115.6 11.8065 116.848 11.8056C118.168 11.7943 119.47 12.1132 120.635 12.7333L120.332 15.081C119.973 14.9165 119.6 14.7849 119.218 14.6878C118.755 14.5625 118.281 14.4562 117.801 14.3703C117.422 14.3241 117.041 14.2988 116.659 14.2946C115.668 14.2946 115.172 14.5494 115.172 15.0592C115.17 15.2255 115.216 15.389 115.303 15.5304C115.391 15.6718 115.517 15.7852 115.667 15.8573C115.997 16.0437 116.511 16.2015 117.208 16.3306C118.437 16.5821 119.411 17.0059 120.128 17.602C120.469 17.8688 120.744 18.2109 120.931 18.6015C121.118 18.9921 121.212 19.4206 121.206 19.8536C121.206 20.7081 120.985 21.3974 120.543 21.9217C120.093 22.4516 119.5 22.8409 118.835 23.0431C118.096 23.2721 117.325 23.3846 116.551 23.3767C116.18 23.377 115.81 23.3556 115.441 23.3126C114.032 23.1543 112.836 22.7771 111.856 22.181L112.125 19.7459C112.562 20.0478 113.192 20.3139 114.016 20.544Z" fill="white"/>
<path d="M58.1759 2.93756L53.0873 0L47.6811 3.12106L43.5843 5.48626L37.8198 8.81413V10.2836L42.9085 13.2212V11.7531L58.1759 2.93756Z" fill="#FF671F"/>
<path d="M53.0873 29.3814L42.9085 23.5048V11.7531L37.8198 8.81413V26.4438L53.0873 35.258L54.0922 34.6638V28.7886L53.0873 29.3814Z" fill="#E04E39"/>
<path d="M53.0872 11.7531L47.9971 14.6907V15.8951L53.0872 18.8327L58.1758 15.8951V14.6907L53.0872 11.7531ZM63.2645 5.87657L58.1758 8.81413L63.2645 11.7531V12.9561L68.3532 10.0186V8.81413L63.2645 5.87657Z" fill="#FF671F"/>
<path d="M53.0872 17.6297L47.9971 14.6907V20.5673L53.0872 23.5223L54.1329 22.9077V17.0238L53.0872 17.6297Z" fill="#E04E39"/>
<path d="M53.0872 17.6297V35.258L68.3531 26.4438V8.81413L63.2645 11.7531V23.5048L58.1758 26.4438V14.6907L53.0872 17.6297Z" fill="#A72B2A"/>
</g>
<defs>
<clipPath id="clip0_24_3621">
<rect width="160" height="35.258" fill="white"/>
</clipPath>
</defs>
</svg>
